<svg xmlns="http://www.w3.org/2000/svg" width="106" height="106" viewBox="0 0 106 106"><defs><mask id="g0p8b" width="2" height="2" x="-1" y="-1"><path fill="#fff" d="M18 18h70v70H18z"/><path d="M53 18c19.33 0 35 15.67 35 35S72.33 88 53 88 18 72.33 18 53s15.67-35 35-35z"/></mask><filter id="g0p8a" width="120" height="120" x="-7" y="-7" filterUnits="userSpaceOnUse"><feOffset in="SourceGraphic" result="FeOffset1030Out"/><feGaussianBlur in="FeOffset1030Out" result="FeGaussianBlur1031Out" stdDeviation="6 6"/></filter></defs><g><g opacity=".9"><g opacity=".27"><path fill="#fff" d="M53 0c29.271 0 53 23.729 53 53s-23.729 53-53 53S0 82.27 0 53 23.729 0 53 0z"/></g><g opacity=".72"><g filter="url(#g0p8a)"><path fill="none" d="M53 18c19.33 0 35 15.67 35 35S72.33 88 53 88 18 72.33 18 53s15.67-35 35-35z" mask="url(&quot;#g0p8b&quot;)"/><path fill="#b0b0b0" fill-opacity=".25" d="M53 18c19.33 0 35 15.67 35 35S72.33 88 53 88 18 72.33 18 53s15.67-35 35-35z"/></g><path fill="#fff" d="M53 18c19.33 0 35 15.67 35 35S72.33 88 53 88 18 72.33 18 53s15.67-35 35-35z"/></g><g opacity=".9"><path fill="#7e5aff" d="M53 45a8 8 0 1 1 0 16 8 8 0 0 1 0-16z"/></g></g></g></svg>